<svg xmlns="http://www.w3.org/2000/svg" xmlns:xlink="http://www.w3.org/1999/xlink" viewBox="0 0 512 512">
    <defs>
        <linearGradient id="a" x1="99.5" x2="232.6" y1="30.7" y2="261.4" gradientUnits="userSpaceOnUse">
            <stop offset="0" stop-color="#f3f7fe"/>
            <stop offset=".5" stop-color="#f3f7fe"/>
            <stop offset="1" stop-color="#deeafb"/>
        </linearGradient>
        <linearGradient id="b" x1="6.5" x2="18.5" y1="2.1" y2="22.9" gradientUnits="userSpaceOnUse">
            <stop offset="0" stop-color="#86c3db"/>
            <stop offset=".5" stop-color="#86c3db"/>
            <stop offset="1" stop-color="#5eafcf"/>
        </linearGradient>
        <linearGradient xlink:href="#b" id="c" x1="62.5" x2="74.5" y1="2.1" y2="22.9"/>
        <linearGradient xlink:href="#b" id="d" x1="118.5" x2="130.5" y1="2.1" y2="22.9"/>
        <symbol id="e" viewBox="0 0 350 222">
            <path fill="url(#a)" stroke="#e6effc" stroke-miterlimit="10" stroke-width="6"
                  d="m291 107-2.5.1A83.9 83.9 0 00135.6 43 56 56 0 0051 91a56.6 56.6 0 00.8 9A60 60 0 0063 219l4-.2v.2h224a56 56 0 000-112Z"/>
        </symbol>
        <symbol id="f" overflow="visible" viewBox="0 0 137 25">
            <path fill="url(#b)" stroke="#86c3db" stroke-miterlimit="10"
                  d="m41.7 31-5.8-3.3a13.7 13.7 0 000-6.5l5.8-3.2a4 4 0 001.5-5.5 4 4 0 00-5.6-1.5l-5.8 3.3a13.6 13.6 0 00-2.6-2 13.8 13.8 0 00-3-1.3V4.5a4 4 0 00-8.1 0v6.6a14.3 14.3 0 00-5.7 3.2L6.6 11A4 4 0 001 12.5 4 4 0 002.5 18l5.8 3.3a13.7 13.7 0 000 6.5L2.5 31A4 4 0 001 36.5a4 4 0 003.5 2 4 4 0 002-.5l5.8-3.3a13.6 13.6 0 002.6 2 13.8 13.8 0 003 1.2v6.6a4 4 0 008.2 0v-6.6a14.2 14.2 0 005.6-3.2l6 3.3a4 4 0 002 .5 4 4 0 003.4-2 4 4 0 00-1.4-5.5ZM19 29.7a6 6 0 01-2.3-8.2 6.1 6.1 0 015.3-3 6.2 6.2 0 013 .8 6 6 0 012.2 8.2 6.1 6.1 0 01-8.2 2.2Z"
                  opacity="0">
                <animateTransform id="x1" additive="sum" attributeName="transform" begin="0s; x1.end+.42s" dur=".58s"
                                  keyTimes="0; .71; 1" type="translate" values="0 -46; 0 86; -18 74"/>
                <animate id="y1" attributeName="opacity" begin="0s; y1.end+.42s" dur=".58s" keyTimes="0; .14; .71; 1"
                         values="0; 1; 1; 0"/>
            </path>
            <path fill="url(#c)" stroke="#86c3db" stroke-miterlimit="10"
                  d="m97.7 31-5.8-3.3a13.7 13.7 0 000-6.5l5.8-3.2a4 4 0 001.5-5.5 4 4 0 00-5.6-1.5l-5.8 3.3a13.6 13.6 0 00-2.6-2 13.8 13.8 0 00-3-1.3V4.5a4 4 0 00-8.1 0v6.6a14.3 14.3 0 00-5.7 3.2L62.6 11a4 4 0 00-5.6 1.5 4 4 0 001.5 5.5l5.8 3.3a13.7 13.7 0 000 6.5L58.5 31a4 4 0 00-1.5 5.5 4 4 0 003.5 2 4 4 0 002-.5l5.8-3.3a13.6 13.6 0 002.7 2 13.8 13.8 0 003 1.2v6.6a4 4 0 008 0v-6.6a14.2 14.2 0 005.7-3.2l6 3.3a4 4 0 002 .5 4 4 0 003.4-2 4 4 0 00-1.4-5.5ZM75 29.7a6 6 0 01-2.3-8.2 6.1 6.1 0 015.3-3 6.2 6.2 0 013 .8 6 6 0 012.2 8.2 6.1 6.1 0 01-8.2 2.2Z"
                  opacity="0">
                <animateTransform id="x2" additive="sum" attributeName="transform" begin=".67s; x2.end+.42s" dur=".58s"
                                  keyTimes="0; .71; 1" type="translate" values="0 -46; 0 86; 0 74"/>
                <animate id="y2" attributeName="opacity" begin=".67s; y2.end+.42s" dur=".58s" keyTimes="0; .14; .71; 1"
                         values="0; 1; 1; 0"/>
            </path>
            <path fill="url(#d)" stroke="#86c3db" stroke-miterlimit="10"
                  d="m153.7 31-5.8-3.3a13.7 13.7 0 000-6.5l5.8-3.2a4 4 0 001.5-5.5 4 4 0 00-5.6-1.5l-5.8 3.3a13.6 13.6 0 00-2.6-2 13.8 13.8 0 00-3-1.3V4.5a4 4 0 00-8.1 0v6.6a14.3 14.3 0 00-5.7 3.2l-5.8-3.3a4 4 0 00-5.6 1.5 4 4 0 001.5 5.5l5.8 3.3a13.7 13.7 0 000 6.5l-5.8 3.2a4 4 0 00-1.5 5.5 4 4 0 003.5 2 4 4 0 002-.5l5.8-3.3a13.6 13.6 0 002.7 2 13.8 13.8 0 003 1.2v6.6a4 4 0 008 0v-6.6a14.2 14.2 0 005.7-3.2l5.8 3.3a4 4 0 002 .5 4 4 0 003.5-2 4 4 0 00-1.3-5.5ZM131 29.7a6 6 0 01-2.3-8.2 6.1 6.1 0 015.3-3 6.2 6.2 0 013 .8 6 6 0 012.2 8.2 6.1 6.1 0 01-8.2 2.2Z"
                  opacity="0">
                <animateTransform id="x3" additive="sum" attributeName="transform" begin=".33s; x3.end+.42s" dur=".58s"
                                  keyTimes="0; .71; 1" type="translate" values="0 -46; 0 86; 18 74"/>
                <animate id="y3" attributeName="opacity" begin=".33s; y3.end+.42s" dur=".58s" keyTimes="0; .14; .71; 1"
                         values="0; 1; 1; 0"/>
            </path>



        </symbol>

        <symbol id="z" overflow="visible" viewBox="0 0 137 25">
            <path fill="url(#b)" stroke="#86c3db" stroke-miterlimit="10"
                  d="m41.7 31-5.8-3.3a13.7 13.7 0 000-6.5l5.8-3.2a4 4 0 001.5-5.5 4 4 0 00-5.6-1.5l-5.8 3.3a13.6 13.6 0 00-2.6-2 13.8 13.8 0 00-3-1.3V4.5a4 4 0 00-8.1 0v6.6a14.3 14.3 0 00-5.7 3.2L6.6 11A4 4 0 001 12.5 4 4 0 002.5 18l5.8 3.3a13.7 13.7 0 000 6.5L2.5 31A4 4 0 001 36.5a4 4 0 003.5 2 4 4 0 002-.5l5.8-3.3a13.6 13.6 0 002.6 2 13.8 13.8 0 003 1.2v6.6a4 4 0 008.2 0v-6.6a14.2 14.2 0 005.6-3.2l6 3.3a4 4 0 002 .5 4 4 0 003.4-2 4 4 0 00-1.4-5.5ZM19 29.7a6 6 0 01-2.3-8.2 6.1 6.1 0 015.3-3 6.2 6.2 0 013 .8 6 6 0 012.2 8.2 6.1 6.1 0 01-8.2 2.2Z"
                  opacity="0">
                <animateTransform id="x1" additive="sum" attributeName="transform" begin="0s; x1.end+.42s" dur=".4s"
                                  keyTimes="0; .71; 1" type="translate" values="0 -46; 0 86; -18 74"/>
                <animate id="y1" attributeName="opacity" begin="0s; y1.end+.42s" dur=".4s" keyTimes="0; .14; .71; 1"
                         values="0; 1; 1; 0"/>
            </path>
            <path fill="url(#c)" stroke="#86c3db" stroke-miterlimit="10"
                  d="m97.7 31-5.8-3.3a13.7 13.7 0 000-6.5l5.8-3.2a4 4 0 001.5-5.5 4 4 0 00-5.6-1.5l-5.8 3.3a13.6 13.6 0 00-2.6-2 13.8 13.8 0 00-3-1.3V4.5a4 4 0 00-8.1 0v6.6a14.3 14.3 0 00-5.7 3.2L62.6 11a4 4 0 00-5.6 1.5 4 4 0 001.5 5.5l5.8 3.3a13.7 13.7 0 000 6.5L58.5 31a4 4 0 00-1.5 5.5 4 4 0 003.5 2 4 4 0 002-.5l5.8-3.3a13.6 13.6 0 002.7 2 13.8 13.8 0 003 1.2v6.6a4 4 0 008 0v-6.6a14.2 14.2 0 005.7-3.2l6 3.3a4 4 0 002 .5 4 4 0 003.4-2 4 4 0 00-1.4-5.5ZM75 29.7a6 6 0 01-2.3-8.2 6.1 6.1 0 015.3-3 6.2 6.2 0 013 .8 6 6 0 012.2 8.2 6.1 6.1 0 01-8.2 2.2Z"
                  opacity="0">
                <animateTransform id="x2" additive="sum" attributeName="transform" begin=".5s; x2.end+.42s" dur=".2s"
                                  keyTimes="0; .71; 1" type="translate" values="0 -46; 0 86; 0 74"/>
                <animate id="y2" attributeName="opacity" begin=".67s; y2.end+.42s" dur=".2s" keyTimes="0; .14; .71; 1"
                         values="0; 1; 1; 0"/>
            </path>
            <path fill="url(#d)" stroke="#86c3db" stroke-miterlimit="10"
                  d="m153.7 31-5.8-3.3a13.7 13.7 0 000-6.5l5.8-3.2a4 4 0 001.5-5.5 4 4 0 00-5.6-1.5l-5.8 3.3a13.6 13.6 0 00-2.6-2 13.8 13.8 0 00-3-1.3V4.5a4 4 0 00-8.1 0v6.6a14.3 14.3 0 00-5.7 3.2l-5.8-3.3a4 4 0 00-5.6 1.5 4 4 0 001.5 5.5l5.8 3.3a13.7 13.7 0 000 6.5l-5.8 3.2a4 4 0 00-1.5 5.5 4 4 0 003.5 2 4 4 0 002-.5l5.8-3.3a13.6 13.6 0 002.7 2 13.8 13.8 0 003 1.2v6.6a4 4 0 008 0v-6.6a14.2 14.2 0 005.7-3.2l5.8 3.3a4 4 0 002 .5 4 4 0 003.5-2 4 4 0 00-1.3-5.5ZM131 29.7a6 6 0 01-2.3-8.2 6.1 6.1 0 015.3-3 6.2 6.2 0 013 .8 6 6 0 012.2 8.2 6.1 6.1 0 01-8.2 2.2Z"
                  opacity="0">
                <animateTransform id="x3" additive="sum" attributeName="transform" begin=".25s; x3.end+.42s" dur=".2s"
                                  keyTimes="0; .71; 1" type="translate" values="0 -46; 0 86; 18 74"/>
                <animate id="y3" attributeName="opacity" begin=".33s; y3.end+.42s" dur=".2s" keyTimes="0; .14; .71; 1"
                         values="0; 1; 1; 0"/>
            </path>



        </symbol>
    </defs>
    <use xlink:href="#e" width="350" height="222" transform="translate(81 145)"/>
    <use xlink:href="#f" width="137" height="25" transform="translate(187.5 349.5)"/>
    <use xlink:href="#z" width="150" height="25" transform="translate(120.5 349.5)"/>
</svg>